<svg width="21" height="21" viewBox="0 0 21 21" fill="none" xmlns="http://www.w3.org/2000/svg">
<path d="M14.6565 3.11793V1.75293C14.6565 1.39418 14.359 1.09668 14.0002 1.09668C13.6415 1.09668 13.344 1.39418 13.344 1.75293V3.06543H7.65645V1.75293C7.65645 1.39418 7.35895 1.09668 7.0002 1.09668C6.64145 1.09668 6.34395 1.39418 6.34395 1.75293V3.11793C3.98145 3.33668 2.8352 4.74543 2.6602 6.83668C2.6427 7.09043 2.8527 7.30043 3.0977 7.30043H17.9027C18.1564 7.30043 18.3664 7.08168 18.3402 6.83668C18.1652 4.74543 17.019 3.33668 14.6565 3.11793Z" fill="#3439CA"/>
<path d="M17.5 8.61304H3.5C3.01875 8.61304 2.625 9.00679 2.625 9.48804V14.878C2.625 17.503 3.9375 19.253 7 19.253H14C17.0625 19.253 18.375 17.503 18.375 14.878V9.48804C18.375 9.00679 17.9813 8.61304 17.5 8.61304ZM8.05875 15.9368C8.015 15.9718 7.97125 16.0155 7.9275 16.0418C7.875 16.0768 7.8225 16.103 7.77 16.1205C7.7175 16.1468 7.665 16.1643 7.6125 16.173C7.55125 16.1818 7.49875 16.1905 7.4375 16.1905C7.32375 16.1905 7.21 16.1643 7.105 16.1205C6.99125 16.0768 6.90375 16.0155 6.81625 15.9368C6.65875 15.7705 6.5625 15.543 6.5625 15.3155C6.5625 15.088 6.65875 14.8605 6.81625 14.6943C6.90375 14.6155 6.99125 14.5543 7.105 14.5105C7.2625 14.4405 7.4375 14.423 7.6125 14.458C7.665 14.4668 7.7175 14.4843 7.77 14.5105C7.8225 14.528 7.875 14.5543 7.9275 14.5893C7.97125 14.6243 8.015 14.6593 8.05875 14.6943C8.21625 14.8605 8.3125 15.088 8.3125 15.3155C8.3125 15.543 8.21625 15.7705 8.05875 15.9368ZM8.05875 12.8743C7.8925 13.0318 7.665 13.128 7.4375 13.128C7.21 13.128 6.9825 13.0318 6.81625 12.8743C6.65875 12.708 6.5625 12.4805 6.5625 12.253C6.5625 12.0255 6.65875 11.798 6.81625 11.6318C7.06125 11.3868 7.44625 11.308 7.77 11.448C7.88375 11.4918 7.98 11.553 8.05875 11.6318C8.21625 11.798 8.3125 12.0255 8.3125 12.253C8.3125 12.4805 8.21625 12.708 8.05875 12.8743ZM11.1213 15.9368C10.955 16.0943 10.7275 16.1905 10.5 16.1905C10.2725 16.1905 10.045 16.0943 9.87875 15.9368C9.72125 15.7705 9.625 15.543 9.625 15.3155C9.625 15.088 9.72125 14.8605 9.87875 14.6943C10.2025 14.3705 10.7975 14.3705 11.1213 14.6943C11.2788 14.8605 11.375 15.088 11.375 15.3155C11.375 15.543 11.2788 15.7705 11.1213 15.9368ZM11.1213 12.8743C11.0775 12.9093 11.0338 12.9443 10.99 12.9793C10.9375 13.0143 10.885 13.0405 10.8325 13.058C10.78 13.0843 10.7275 13.1018 10.675 13.1105C10.6137 13.1193 10.5613 13.128 10.5 13.128C10.2725 13.128 10.045 13.0318 9.87875 12.8743C9.72125 12.708 9.625 12.4805 9.625 12.253C9.625 12.0255 9.72125 11.798 9.87875 11.6318C9.9575 11.553 10.0537 11.4918 10.1675 11.448C10.4912 11.308 10.8763 11.3868 11.1213 11.6318C11.2788 11.798 11.375 12.0255 11.375 12.253C11.375 12.4805 11.2788 12.708 11.1213 12.8743ZM14.1837 15.9368C14.0175 16.0943 13.79 16.1905 13.5625 16.1905C13.335 16.1905 13.1075 16.0943 12.9412 15.9368C12.7837 15.7705 12.6875 15.543 12.6875 15.3155C12.6875 15.088 12.7837 14.8605 12.9412 14.6943C13.265 14.3705 13.86 14.3705 14.1837 14.6943C14.3412 14.8605 14.4375 15.088 14.4375 15.3155C14.4375 15.543 14.3412 15.7705 14.1837 15.9368ZM14.1837 12.8743C14.14 12.9093 14.0962 12.9443 14.0525 12.9793C14 13.0143 13.9475 13.0405 13.895 13.058C13.8425 13.0843 13.79 13.1018 13.7375 13.1105C13.6762 13.1193 13.615 13.128 13.5625 13.128C13.335 13.128 13.1075 13.0318 12.9412 12.8743C12.7837 12.708 12.6875 12.4805 12.6875 12.253C12.6875 12.0255 12.7837 11.798 12.9412 11.6318C13.0287 11.553 13.1162 11.4918 13.23 11.448C13.3875 11.378 13.5625 11.3605 13.7375 11.3955C13.79 11.4043 13.8425 11.4218 13.895 11.448C13.9475 11.4655 14 11.4918 14.0525 11.5268C14.0962 11.5618 14.14 11.5968 14.1837 11.6318C14.3412 11.798 14.4375 12.0255 14.4375 12.253C14.4375 12.4805 14.3412 12.708 14.1837 12.8743Z" fill="#3439CA"/>
</svg>
