<svg width="21" height="22" viewBox="0 0 21 22" fill="none" xmlns="http://www.w3.org/2000/svg">
<path d="M14 2.25293H7C3.9375 2.25293 2.625 4.00293 2.625 6.62793V15.3779C2.625 18.0029 3.9375 19.7529 7 19.7529H14C17.0625 19.7529 18.375 18.0029 18.375 15.3779V6.62793C18.375 4.00293 17.0625 2.25293 14 2.25293ZM11.4362 14.0567C10.99 15.4829 9.42375 16.2267 8.98625 16.2267C8.5575 16.2179 7.00875 15.4917 6.545 14.0567C6.25625 13.1554 6.5975 12.0442 7.53375 11.7379C8.0325 11.5804 8.645 11.7117 8.98625 12.1929C9.31 11.6942 9.94875 11.5804 10.4388 11.7379C11.3838 12.0442 11.7162 13.1554 11.4362 14.0567ZM16.1875 8.59668H14.4375C13.1075 8.59668 12.0312 7.52043 12.0312 6.19043V4.44043C12.0312 4.08168 12.3288 3.78418 12.6875 3.78418C13.0462 3.78418 13.3438 4.08168 13.3438 4.44043V6.19043C13.3438 6.79418 13.8338 7.28418 14.4375 7.28418H16.1875C16.5462 7.28418 16.8438 7.58168 16.8438 7.94043C16.8438 8.29918 16.5462 8.59668 16.1875 8.59668Z" fill="#3439CA"/>
</svg>
