<svg width="21" height="22" viewBox="0 0 21 22" fill="none" xmlns="http://www.w3.org/2000/svg">
<path d="M14 2.25293H7C3.9375 2.25293 2.625 4.00293 2.625 6.62793V15.3779C2.625 18.0029 3.9375 19.7529 7 19.7529H14C17.0625 19.7529 18.375 18.0029 18.375 15.3779V6.62793C18.375 4.00293 17.0625 2.25293 14 2.25293ZM7 11.2217H10.5C10.8587 11.2217 11.1562 11.5192 11.1562 11.8779C11.1562 12.2367 10.8587 12.5342 10.5 12.5342H7C6.64125 12.5342 6.34375 12.2367 6.34375 11.8779C6.34375 11.5192 6.64125 11.2217 7 11.2217ZM14 16.0342H7C6.64125 16.0342 6.34375 15.7367 6.34375 15.3779C6.34375 15.0192 6.64125 14.7217 7 14.7217H14C14.3587 14.7217 14.6562 15.0192 14.6562 15.3779C14.6562 15.7367 14.3587 16.0342 14 16.0342ZM16.1875 8.59668H14.4375C13.1075 8.59668 12.0312 7.52043 12.0312 6.19043V4.44043C12.0312 4.08168 12.3288 3.78418 12.6875 3.78418C13.0462 3.78418 13.3438 4.08168 13.3438 4.44043V6.19043C13.3438 6.79418 13.8338 7.28418 14.4375 7.28418H16.1875C16.5462 7.28418 16.8438 7.58168 16.8438 7.94043C16.8438 8.29918 16.5462 8.59668 16.1875 8.59668Z" fill="#3439CA"/>
</svg>
