<svg width="138" height="21" viewBox="0 0 138 21" fill="none" xmlns="http://www.w3.org/2000/svg">
<path d="M0.5 10.4615H56" stroke="#878789"/>
<path d="M66.362 16.5875C63.548 16.5875 61.644 14.5155 61.644 11.5475C61.644 8.57955 63.548 6.43755 66.362 6.43755C69.162 6.43755 71.052 8.57955 71.052 11.5475C71.052 14.5155 69.162 16.5875 66.362 16.5875ZM66.362 15.4535C68.476 15.4535 69.792 13.8855 69.792 11.5475C69.792 9.20955 68.476 7.57155 66.362 7.57155C64.22 7.57155 62.904 9.20955 62.904 11.5475C62.904 13.8855 64.234 15.4535 66.362 15.4535ZM75.6534 9.37755H76.5494V10.4415H75.6114C74.3934 10.4415 73.8474 11.2395 73.8474 12.5555V16.4615H72.6994V9.37755H73.7074L73.8614 10.3855C74.1554 9.82555 74.8274 9.37755 75.6534 9.37755Z" fill="#878789"/>
<path d="M82 10.4615H137.5" stroke="#878789"/>
</svg>
