<svg width="73" height="76" viewBox="0 0 73 76" fill="none" xmlns="http://www.w3.org/2000/svg">
<rect x="0.464111" y="0.681885" width="72.5037" height="74.6361" rx="8.52984" fill="#EDF5FF"/>
<path d="M48.9641 26.5986C48.8391 26.5778 48.6933 26.5778 48.5683 26.5986C45.6933 26.4945 43.4016 24.1403 43.4016 21.2236C43.4016 18.2445 45.7974 15.8486 48.7766 15.8486C51.7558 15.8486 54.1516 18.2653 54.1516 21.2236C54.1308 24.1403 51.8391 26.4945 48.9641 26.5986Z" stroke="#3439CA" stroke-width="3" stroke-linecap="round" stroke-linejoin="round"/>
<path d="M46.8183 41.7651C49.6724 42.2443 52.8183 41.7443 55.0266 40.2651C57.9641 38.3068 57.9641 35.0985 55.0266 33.1401C52.7975 31.661 49.6099 31.161 46.7558 31.661" stroke="#3439CA" stroke-width="3" stroke-linecap="round" stroke-linejoin="round"/>
<path d="M23.9016 26.5986C24.0266 26.5778 24.1724 26.5778 24.2974 26.5986C27.1724 26.4945 29.4641 24.1403 29.4641 21.2236C29.4641 18.2445 27.0683 15.8486 24.0891 15.8486C21.1099 15.8486 18.7141 18.2653 18.7141 21.2236C18.7349 24.1403 21.0266 26.4945 23.9016 26.5986Z" stroke="#3439CA" stroke-width="3" stroke-linecap="round" stroke-linejoin="round"/>
<path d="M26.0474 41.7651C23.1933 42.2443 20.0474 41.7443 17.8391 40.2651C14.9016 38.3068 14.9016 35.0985 17.8391 33.1401C20.0683 31.661 23.2558 31.161 26.1099 31.661" stroke="#3439CA" stroke-width="3" stroke-linecap="round" stroke-linejoin="round"/>
<path d="M36.4641 42.1609C36.3391 42.1401 36.1933 42.1401 36.0683 42.1609C33.1933 42.0567 30.9016 39.7026 30.9016 36.7859C30.9016 33.8067 33.2974 31.4109 36.2766 31.4109C39.2558 31.4109 41.6516 33.8276 41.6516 36.7859C41.6308 39.7026 39.3391 42.0776 36.4641 42.1609Z" stroke="#3439CA" stroke-width="3" stroke-linecap="round" stroke-linejoin="round"/>
<path d="M30.4016 48.7231C27.4641 50.6815 27.4641 53.8898 30.4016 55.8481C33.7349 58.0773 39.1933 58.0773 42.5266 55.8481C45.4641 53.8898 45.4641 50.6815 42.5266 48.7231C39.2141 46.5148 33.7349 46.5148 30.4016 48.7231Z" stroke="#3439CA" stroke-width="3" stroke-linecap="round" stroke-linejoin="round"/>
</svg>
