<svg width="20" height="21" viewBox="0 0 20 21" fill="none" xmlns="http://www.w3.org/2000/svg">
<path d="M13.4915 2.16968H6.50817C3.47484 2.16968 1.6665 3.97801 1.6665 7.01134V13.9863C1.6665 17.028 3.47484 18.8363 6.50817 18.8363H13.4832C16.5165 18.8363 18.3248 17.028 18.3248 13.9947V7.01134C18.3332 3.97801 16.5248 2.16968 13.4915 2.16968ZM9.99984 15.7113C8.50817 15.7113 7.3415 14.9697 6.54984 14.2363V14.828C6.54984 15.1697 6.2665 15.453 5.92484 15.453C5.58317 15.453 5.29984 15.1697 5.29984 14.828V12.5363C5.29984 12.1947 5.58317 11.9113 5.92484 11.9113H7.9915C8.33317 11.9113 8.6165 12.1947 8.6165 12.5363C8.6165 12.878 8.33317 13.1613 7.9915 13.1613H7.2415C7.85817 13.778 8.8165 14.4613 9.99984 14.4613C12.1832 14.4613 13.9582 12.6863 13.9582 10.503C13.9582 10.1613 14.2415 9.87801 14.5832 9.87801C14.9248 9.87801 15.2082 10.1613 15.2082 10.503C15.2082 13.378 12.8748 15.7113 9.99984 15.7113ZM15.2082 8.45301C15.2082 8.47801 15.2082 8.50301 15.2082 8.51968C15.1998 8.61134 15.1748 8.69468 15.1332 8.76968C15.0915 8.84468 15.0332 8.91134 14.9582 8.96968C14.8998 9.01134 14.8332 9.04468 14.7582 9.06968C14.6998 9.08634 14.6415 9.09468 14.5832 9.09468H12.5582C12.2165 9.09468 11.9332 8.81134 11.9332 8.46968C11.9332 8.12801 12.2165 7.84468 12.5582 7.84468H13.2498C12.5832 7.22801 11.5082 6.54468 10.0165 6.54468C7.83317 6.54468 6.05817 8.31968 6.05817 10.503C6.05817 10.8447 5.77484 11.128 5.43317 11.128C5.0915 11.128 4.7915 10.8447 4.7915 10.503C4.7915 7.62801 7.12484 5.29468 9.99984 5.29468C11.7915 5.29468 13.1082 6.06968 13.9582 6.81134V6.17801C13.9582 5.83634 14.2415 5.55301 14.5832 5.55301C14.9248 5.55301 15.2082 5.83634 15.2082 6.17801V8.45301Z" fill="#3439CA"/>
</svg>
