<svg width="24" height="25" viewBox="0 0 24 25" fill="none" xmlns="http://www.w3.org/2000/svg">
<path d="M20.1 9.72287C18.29 9.72287 17.55 8.44287 18.45 6.87287C18.97 5.96287 18.66 4.80287 17.75 4.28287L16.02 3.29287C15.23 2.82287 14.21 3.10287 13.74 3.89287L13.63 4.08287C12.73 5.65287 11.25 5.65287 10.34 4.08287L10.23 3.89287C9.78 3.10287 8.76 2.82287 7.97 3.29287L6.24 4.28287C5.33 4.80287 5.02 5.97287 5.54 6.88287C6.45 8.44287 5.71 9.72287 3.9 9.72287C2.86 9.72287 2 10.5729 2 11.6229V13.3829C2 14.4229 2.85 15.2829 3.9 15.2829C5.71 15.2829 6.45 16.5629 5.54 18.1329C5.02 19.0429 5.33 20.2029 6.24 20.7229L7.97 21.7129C8.76 22.1829 9.78 21.9029 10.25 21.1129L10.36 20.9229C11.26 19.3529 12.74 19.3529 13.65 20.9229L13.76 21.1129C14.23 21.9029 15.25 22.1829 16.04 21.7129L17.77 20.7229C18.68 20.2029 18.99 19.0329 18.47 18.1329C17.56 16.5629 18.3 15.2829 20.11 15.2829C21.15 15.2829 22.01 14.4329 22.01 13.3829V11.6229C22 10.5829 21.15 9.72287 20.1 9.72287ZM12 15.7529C10.21 15.7529 8.75 14.2929 8.75 12.5029C8.75 10.7129 10.21 9.25287 12 9.25287C13.79 9.25287 15.25 10.7129 15.25 12.5029C15.25 14.2929 13.79 15.7529 12 15.7529Z" fill="#3439CA"/>
</svg>
