<svg width="24" height="25" viewBox="0 0 24 25" fill="none" xmlns="http://www.w3.org/2000/svg">
<path fill-rule="evenodd" clip-rule="evenodd" d="M12 20.5C16.4183 20.5 20 16.9183 20 12.5C20 8.08172 16.4183 4.5 12 4.5C7.58172 4.5 4 8.08172 4 12.5C4 16.9183 7.58172 20.5 12 20.5ZM8.37535 10.6877L10.1877 12.5L8.37535 14.3123C7.87488 14.8128 7.87488 15.6242 8.37535 16.1247C8.87581 16.6251 9.68721 16.6251 10.1877 16.1247L12 14.3123L13.8123 16.1247C14.3128 16.6251 15.1242 16.6251 15.6247 16.1247C16.1251 15.6242 16.1251 14.8128 15.6247 14.3123L13.8123 12.5L15.6247 10.6877C16.1251 10.1872 16.1251 9.37581 15.6247 8.87535C15.1242 8.37488 14.3128 8.37488 13.8123 8.87535L12 10.6877L10.1877 8.87535C9.68721 8.37488 8.87581 8.37488 8.37535 8.87535C7.87488 9.37581 7.87488 10.1872 8.37535 10.6877Z" fill="#3439CA"/>
</svg>
