<svg width="17" height="16" viewBox="0 0 17 16" fill="none" xmlns="http://www.w3.org/2000/svg">
<path fill-rule="evenodd" clip-rule="evenodd" d="M4.5 4.66675C3.39543 4.66675 2.5 5.56218 2.5 6.66675V10.6667C2.5 11.7713 3.39543 12.6667 4.5 12.6667H12.5C13.6046 12.6667 14.5 11.7713 14.5 10.6667V6.66675C14.5 5.56218 13.6046 4.66675 12.5 4.66675H4.5ZM5.83333 8.66675C5.83333 10.1395 7.02724 11.3334 8.5 11.3334C9.97276 11.3334 11.1667 10.1395 11.1667 8.66675C11.1667 7.19399 9.97276 6.00008 8.5 6.00008C7.02724 6.00008 5.83333 7.19399 5.83333 8.66675Z" fill="#3439CA"/>
<rect opacity="0.3" x="6.5" y="2.66675" width="4" height="1.33333" rx="0.666667" fill="#3439CA"/>
<path opacity="0.3" fill-rule="evenodd" clip-rule="evenodd" d="M8.49984 9.99992C9.23622 9.99992 9.83317 9.40296 9.83317 8.66659C9.83317 7.93021 9.23622 7.33325 8.49984 7.33325C7.76346 7.33325 7.1665 7.93021 7.1665 8.66659C7.1665 9.40296 7.76346 9.99992 8.49984 9.99992Z" fill="#3439CA"/>
</svg>
