<svg width="91" height="91" viewBox="0 0 91 91" fill="none" xmlns="http://www.w3.org/2000/svg">
<path d="M45.0956 7.67456C24.4711 7.67456 7.66455 24.4811 7.66455 45.1056C7.66455 65.7301 24.4711 82.5367 45.0956 82.5367C65.7201 82.5367 82.5267 65.7301 82.5267 45.1056C82.5267 24.4811 65.7201 7.67456 45.0956 7.67456ZM62.9877 36.4965L41.7642 57.7199C41.2402 58.2439 40.529 58.5434 39.7804 58.5434C39.0318 58.5434 38.3206 58.2439 37.7966 57.7199L27.2036 47.1269C26.1181 46.0414 26.1181 44.2447 27.2036 43.1592C28.2891 42.0737 30.0858 42.0737 31.1713 43.1592L39.7804 51.7683L59.02 32.5288C60.1055 31.4433 61.9021 31.4433 62.9877 32.5288C64.0732 33.6143 64.0732 35.3735 62.9877 36.4965Z" fill="#23A26D"/>
</svg>
